<?xml version="1.0" encoding="UTF-8" standalone="no"?>
<svg width="296.333mm" height="158.75mm"
 viewBox="0 0 840 450"
 xmlns="http://www.w3.org/2000/svg" xmlns:xlink="http://www.w3.org/1999/xlink" version="1.2" baseProfile="tiny">
<title>Qt SVG Document</title>
<desc>Generated with Qt</desc>
<defs>
</defs>
<g fill="none" stroke="black" stroke-width="1" fill-rule="evenodd" stroke-linecap="square" stroke-linejoin="bevel" >

<g fill="none" stroke="#000000" stroke-opacity="1" stroke-width="1" stroke-linecap="square" stroke-linejoin="bevel" transform="matrix(1,0,0,1,0,0)"
font-family="Inconsolata" font-size="20" font-weight="400" font-style="normal" 
>
</g>

<g fill="none" stroke="#000000" stroke-opacity="1" stroke-width="1" stroke-linecap="square" stroke-linejoin="bevel" transform="matrix(1,0,0,1,0,0)"
font-family="Inconsolata" font-size="20" font-weight="400" font-style="normal" 
>
</g>

<g fill="#f0f0f0" fill-opacity="1" stroke="#000000" stroke-opacity="1" stroke-width="1" stroke-linecap="square" stroke-linejoin="bevel" transform="matrix(1,0,0,1,0,0)"
font-family="Inconsolata" font-size="18" font-weight="400" font-style="normal" 
>
<rect x="0" y="0" width="490" height="450"/>
<text fill="#000000" fill-opacity="1" stroke="none" xml:space="preserve" x="18" y="33" font-family="Inconsolata" font-size="18" font-weight="400" font-style="normal" 
 >Qt</text>
</g>

<g fill="none" stroke="#000000" stroke-opacity="1" stroke-width="1" stroke-linecap="square" stroke-linejoin="bevel" transform="matrix(1,0,0,1,0,0)"
font-family="Inconsolata" font-size="20" font-weight="400" font-style="normal" 
>
</g>

<g fill="none" stroke="#000000" stroke-opacity="1" stroke-width="1" stroke-linecap="square" stroke-linejoin="bevel" transform="matrix(1,0,0,1,0,0)"
font-family="Inconsolata" font-size="20" font-weight="400" font-style="normal" 
>
</g>

<g fill="#f0f0f0" fill-opacity="1" stroke="#000000" stroke-opacity="1" stroke-width="1" stroke-linecap="square" stroke-linejoin="bevel" transform="matrix(1,0,0,1,0,0)"
font-family="Inconsolata" font-size="18" font-weight="400" font-style="normal" 
>
<rect x="500" y="0" width="340" height="450"/>
<text fill="#000000" fill-opacity="1" stroke="none" xml:space="preserve" x="518" y="33" font-family="Inconsolata" font-size="18" font-weight="400" font-style="normal" 
 >Dear ImGui, egui</text>
</g>

<g fill="none" stroke="#000000" stroke-opacity="1" stroke-width="1" stroke-linecap="square" stroke-linejoin="bevel" transform="matrix(1,0,0,1,0,0)"
font-family="Inconsolata" font-size="20" font-weight="400" font-style="normal" 
>
</g>

<g fill="none" stroke="#000000" stroke-opacity="1" stroke-width="1" stroke-linecap="square" stroke-linejoin="bevel" transform="matrix(1,0,0,1,0,0)"
font-family="Inconsolata" font-size="20" font-weight="400" font-style="normal" 
>
</g>

<g fill="#ffffff" fill-opacity="1" stroke="#000000" stroke-opacity="1" stroke-width="1" stroke-linecap="square" stroke-linejoin="bevel" transform="matrix(1,0,0,1,0,0)"
font-family="Inconsolata" font-size="18" font-weight="400" font-style="normal" 
>
<rect x="10" y="50" width="170" height="390"/>
<text fill="#000000" fill-opacity="1" stroke="none" xml:space="preserve" x="28" y="83" font-family="Inconsolata" font-size="18" font-weight="400" font-style="normal" 
 >Hlavní okno</text>
<text fill="#000000" fill-opacity="1" stroke="none" xml:space="preserve" x="28" y="102" font-family="Inconsolata" font-size="18" font-weight="400" font-style="normal" 
 >GUIMainWindow</text>
<text fill="#000000" fill-opacity="1" stroke="none" xml:space="preserve" x="28" y="121" font-family="Inconsolata" font-size="18" font-weight="400" font-style="normal" 
 >: QMainWindow</text>
</g>

<g fill="none" stroke="#000000" stroke-opacity="1" stroke-width="1" stroke-linecap="square" stroke-linejoin="bevel" transform="matrix(1,0,0,1,0,0)"
font-family="Inconsolata" font-size="20" font-weight="400" font-style="normal" 
>
</g>

<g fill="none" stroke="#000000" stroke-opacity="1" stroke-width="1" stroke-linecap="square" stroke-linejoin="bevel" transform="matrix(1,0,0,1,0,0)"
font-family="Inconsolata" font-size="20" font-weight="400" font-style="normal" 
>
</g>

<g fill="#ffffff" fill-opacity="1" stroke="#000000" stroke-opacity="1" stroke-width="1" stroke-linecap="square" stroke-linejoin="bevel" transform="matrix(1,0,0,1,0,0)"
font-family="Inconsolata" font-size="18" font-weight="400" font-style="normal" 
>
<rect x="268" y="50" width="212" height="390"/>
<text fill="#000000" fill-opacity="1" stroke="none" xml:space="preserve" x="286" y="83" font-family="Inconsolata" font-size="18" font-weight="400" font-style="normal" 
 >Pohled na scénu</text>
<text fill="#000000" fill-opacity="1" stroke="none" xml:space="preserve" x="286" y="102" font-family="Inconsolata" font-size="18" font-weight="400" font-style="normal" 
 >GUISceneViewer</text>
<text fill="#000000" fill-opacity="1" stroke="none" xml:space="preserve" x="286" y="121" font-family="Inconsolata" font-size="18" font-weight="400" font-style="normal" 
 >: QGraphicsView</text>
</g>

<g fill="none" stroke="#000000" stroke-opacity="1" stroke-width="1" stroke-linecap="square" stroke-linejoin="bevel" transform="matrix(1,0,0,1,0,0)"
font-family="Inconsolata" font-size="20" font-weight="400" font-style="normal" 
>
</g>

<g fill="none" stroke="#000000" stroke-opacity="1" stroke-width="1" stroke-linecap="square" stroke-linejoin="bevel" transform="matrix(1,0,0,1,0,0)"
font-family="Inconsolata" font-size="20" font-weight="400" font-style="normal" 
>
</g>

<g fill="#ffffff" fill-opacity="1" stroke="#000000" stroke-opacity="1" stroke-width="1" stroke-linecap="square" stroke-linejoin="bevel" transform="matrix(1,0,0,1,0,0)"
font-family="Inconsolata" font-size="18" font-weight="400" font-style="normal" 
>
<rect x="286" y="150" width="176" height="73"/>
<text fill="#000000" fill-opacity="1" stroke="none" xml:space="preserve" x="306.5" y="183" font-family="Inconsolata" font-size="18" font-weight="400" font-style="normal" 
 >Přepsaná metoda</text>
<text fill="#000000" fill-opacity="1" stroke="none" xml:space="preserve" x="306.5" y="202" font-family="Inconsolata" font-size="18" font-weight="400" font-style="normal" 
 >wheelEvent</text>
</g>

<g fill="none" stroke="#000000" stroke-opacity="1" stroke-width="1" stroke-linecap="square" stroke-linejoin="bevel" transform="matrix(1,0,0,1,0,0)"
font-family="Inconsolata" font-size="20" font-weight="400" font-style="normal" 
>
</g>

<g fill="none" stroke="#000000" stroke-opacity="1" stroke-width="1" stroke-linecap="square" stroke-linejoin="bevel" transform="matrix(1,0,0,1,0,0)"
font-family="Inconsolata" font-size="20" font-weight="400" font-style="normal" 
>
</g>

<g fill="#ffffff" fill-opacity="1" stroke="#000000" stroke-opacity="1" stroke-width="1" stroke-linecap="square" stroke-linejoin="bevel" transform="matrix(1,0,0,1,0,0)"
font-family="Inconsolata" font-size="18" font-weight="400" font-style="normal" 
>
<rect x="510" y="197" width="90" height="92"/>
<text fill="#000000" fill-opacity="1" stroke="none" xml:space="preserve" x="528" y="230" font-family="Inconsolata" font-size="18" font-weight="400" font-style="normal" 
 >Zbytek</text>
<text fill="#000000" fill-opacity="1" stroke="none" xml:space="preserve" x="528" y="249" font-family="Inconsolata" font-size="18" font-weight="400" font-style="normal" 
 >hlavní</text>
<text fill="#000000" fill-opacity="1" stroke="none" xml:space="preserve" x="528" y="268" font-family="Inconsolata" font-size="18" font-weight="400" font-style="normal" 
 >smyčky</text>
</g>

<g fill="none" stroke="#000000" stroke-opacity="1" stroke-width="1" stroke-linecap="square" stroke-linejoin="bevel" transform="matrix(1,0,0,1,0,0)"
font-family="Inconsolata" font-size="20" font-weight="400" font-style="normal" 
>
</g>

<g fill="none" stroke="#000000" stroke-opacity="1" stroke-width="1" stroke-linecap="square" stroke-linejoin="bevel" transform="matrix(1,0,0,1,0,0)"
font-family="Inconsolata" font-size="20" font-weight="400" font-style="normal" 
>
</g>

<g fill="#ffffff" fill-opacity="1" stroke="#000000" stroke-opacity="1" stroke-width="1" stroke-linecap="square" stroke-linejoin="bevel" transform="matrix(1,0,0,1,0,0)"
font-family="Inconsolata" font-size="18" font-weight="400" font-style="normal" 
>
<rect x="41" y="150" width="108" height="73"/>
<text fill="#000000" fill-opacity="1" stroke="none" xml:space="preserve" x="59" y="183" font-family="Inconsolata" font-size="18" font-weight="400" font-style="normal" 
 >Příjemce</text>
<text fill="#000000" fill-opacity="1" stroke="none" xml:space="preserve" x="59" y="202" font-family="Inconsolata" font-size="18" font-weight="400" font-style="normal" 
 >signálu</text>
</g>

<g fill="none" stroke="#000000" stroke-opacity="1" stroke-width="1" stroke-linecap="square" stroke-linejoin="bevel" transform="matrix(1,0,0,1,0,0)"
font-family="Inconsolata" font-size="20" font-weight="400" font-style="normal" 
>
</g>

<g fill="none" stroke="#000000" stroke-opacity="1" stroke-width="1" stroke-linecap="square" stroke-linejoin="bevel" transform="matrix(1,0,0,1,0,0)"
font-family="Inconsolata" font-size="20" font-weight="400" font-style="normal" 
>
</g>

<g fill="#ffffff" fill-opacity="1" stroke="#000000" stroke-opacity="1" stroke-width="1" stroke-linecap="square" stroke-linejoin="bevel" transform="matrix(1,0,0,1,0,0)"
font-family="Inconsolata" font-size="18" font-weight="400" font-style="normal" 
>
<rect x="620" y="197" width="210" height="92"/>
<text fill="#000000" fill-opacity="1" stroke="none" xml:space="preserve" x="635" y="230" font-family="Inconsolata" font-size="18" font-weight="400" font-style="normal" 
 >Vykreslí diagram</text>
<text fill="#000000" fill-opacity="1" stroke="none" xml:space="preserve" x="635" y="249" font-family="Inconsolata" font-size="18" font-weight="400" font-style="normal" 
 >přiblížený podle</text>
<text fill="#000000" fill-opacity="1" stroke="none" xml:space="preserve" x="635" y="268" font-family="Inconsolata" font-size="18" font-weight="400" font-style="normal" 
 >hodnoty m_zoom_level</text>
</g>

<g fill="none" stroke="#000000" stroke-opacity="1" stroke-width="1" stroke-linecap="square" stroke-linejoin="bevel" transform="matrix(1,0,0,1,0,0)"
font-family="Inconsolata" font-size="20" font-weight="400" font-style="normal" 
>
</g>

<g fill="none" stroke="#000000" stroke-opacity="1" stroke-width="1" stroke-linecap="square" stroke-linejoin="bevel" transform="matrix(1,0,0,1,0,0)"
font-family="Inconsolata" font-size="20" font-weight="400" font-style="normal" 
>
</g>

<g fill="#ffffff" fill-opacity="1" stroke="#000000" stroke-opacity="1" stroke-width="1" stroke-linecap="square" stroke-linejoin="bevel" transform="matrix(1,0,0,1,0,0)"
font-family="Inconsolata" font-size="18" font-weight="400" font-style="normal" 
>
<rect x="41" y="303" width="108" height="73"/>
<text fill="#000000" fill-opacity="1" stroke="none" xml:space="preserve" x="59" y="336" font-family="Inconsolata" font-size="18" font-weight="400" font-style="normal" 
 >Posuvník</text>
<text fill="#000000" fill-opacity="1" stroke="none" xml:space="preserve" x="59" y="355" font-family="Inconsolata" font-size="18" font-weight="400" font-style="normal" 
 >QSlider</text>
</g>

<g fill="none" stroke="#000000" stroke-opacity="1" stroke-width="1" stroke-linecap="square" stroke-linejoin="bevel" transform="matrix(1,0,0,1,0,0)"
font-family="Inconsolata" font-size="20" font-weight="400" font-style="normal" 
>
</g>

<g fill="none" stroke="#000000" stroke-opacity="1" stroke-width="1" stroke-linecap="square" stroke-linejoin="bevel" transform="matrix(1,0,0,1,0,0)"
font-family="Inconsolata" font-size="20" font-weight="400" font-style="normal" 
>
</g>

<g fill="#ffffff" fill-opacity="1" stroke="#000000" stroke-opacity="1" stroke-width="1" stroke-linecap="square" stroke-linejoin="bevel" transform="matrix(1,0,0,1,0,0)"
font-family="Inconsolata" font-size="18" font-weight="400" font-style="normal" 
>
<rect x="286" y="303" width="176" height="73"/>
<text fill="#000000" fill-opacity="1" stroke="none" xml:space="preserve" x="297.5" y="336" font-family="Inconsolata" font-size="18" font-weight="400" font-style="normal" 
 >resetTransform();</text>
<text fill="#000000" fill-opacity="1" stroke="none" xml:space="preserve" x="297.5" y="355" font-family="Inconsolata" font-size="18" font-weight="400" font-style="normal" 
 >scale(x, x);</text>
</g>

<g fill="none" stroke="#000000" stroke-opacity="1" stroke-width="1" stroke-linecap="square" stroke-linejoin="bevel" transform="matrix(1,0,0,1,0,0)"
font-family="Inconsolata" font-size="20" font-weight="400" font-style="normal" 
>
</g>

<g fill="none" stroke="#000000" stroke-opacity="1" stroke-width="1" stroke-linecap="square" stroke-linejoin="bevel" transform="matrix(1,0,0,1,0,0)"
font-family="Inconsolata" font-size="20" font-weight="400" font-style="normal" 
>
</g>

<g fill="#ffffff" fill-opacity="1" stroke="#000000" stroke-opacity="1" stroke-width="1" stroke-linecap="square" stroke-linejoin="bevel" transform="matrix(1,0,0,1,0,0)"
font-family="Inconsolata" font-size="18" font-weight="400" font-style="normal" 
>
<rect x="620" y="85" width="210" height="92"/>
<text fill="#000000" fill-opacity="1" stroke="none" xml:space="preserve" x="644" y="118" font-family="Inconsolata" font-size="18" font-weight="400" font-style="normal" 
 >Obslouží kolečko</text>
<text fill="#000000" fill-opacity="1" stroke="none" xml:space="preserve" x="644" y="137" font-family="Inconsolata" font-size="18" font-weight="400" font-style="normal" 
 >myši =&gt; případná</text>
<text fill="#000000" fill-opacity="1" stroke="none" xml:space="preserve" x="644" y="156" font-family="Inconsolata" font-size="18" font-weight="400" font-style="normal" 
 >změna m_zoom_level</text>
</g>

<g fill="none" stroke="#000000" stroke-opacity="1" stroke-width="1" stroke-linecap="square" stroke-linejoin="bevel" transform="matrix(1,0,0,1,0,0)"
font-family="Inconsolata" font-size="20" font-weight="400" font-style="normal" 
>
</g>

<g fill="none" stroke="#000000" stroke-opacity="1" stroke-width="1" stroke-linecap="square" stroke-linejoin="bevel" transform="matrix(1,0,0,1,0,0)"
font-family="Inconsolata" font-size="20" font-weight="400" font-style="normal" 
>
</g>

<g fill="#ffffff" fill-opacity="1" stroke="#000000" stroke-opacity="1" stroke-width="1" stroke-linecap="square" stroke-linejoin="bevel" transform="matrix(1,0,0,1,0,0)"
font-family="Inconsolata" font-size="18" font-weight="400" font-style="normal" 
>
<rect x="620" y="309" width="210" height="92"/>
<text fill="#000000" fill-opacity="1" stroke="none" xml:space="preserve" x="635" y="342" font-family="Inconsolata" font-size="18" font-weight="400" font-style="normal" 
 >Vykreslí a obslouží</text>
<text fill="#000000" fill-opacity="1" stroke="none" xml:space="preserve" x="635" y="361" font-family="Inconsolata" font-size="18" font-weight="400" font-style="normal" 
 >posuvník =&gt; případná</text>
<text fill="#000000" fill-opacity="1" stroke="none" xml:space="preserve" x="635" y="380" font-family="Inconsolata" font-size="18" font-weight="400" font-style="normal" 
 >změna m_zoom_level</text>
</g>

<g fill="none" stroke="#000000" stroke-opacity="1" stroke-width="1" stroke-linecap="square" stroke-linejoin="bevel" transform="matrix(1,0,0,1,0,0)"
font-family="Inconsolata" font-size="20" font-weight="400" font-style="normal" 
>
</g>

<g fill="none" stroke="#000000" stroke-opacity="1" stroke-width="1" stroke-linecap="square" stroke-linejoin="bevel" transform="matrix(1,0,0,1,0,0)"
font-family="Inconsolata" font-size="20" font-weight="400" font-style="normal" 
>
</g>

<g fill="#000000" fill-opacity="1" stroke="#000000" stroke-opacity="1" stroke-width="1" stroke-linecap="square" stroke-linejoin="bevel" transform="matrix(1,0,0,1,0,0)"
font-family="Inconsolata" font-size="18" font-weight="400" font-style="normal" 
>
<polyline fill="none" vector-effect="none" points="286,186.5 149,186.5 " />
<path vector-effect="none" fill-rule="evenodd" d="M149,186.5 L161,182.5 L161,190.5 L149,186.5"/>
</g>

<g fill="#f0f0f0" fill-opacity="1" stroke="none" transform="matrix(1,0,0,1,0,0)"
font-family="Inconsolata" font-size="18" font-weight="400" font-style="normal" 
>
<rect x="199" y="168" width="54" height="37"/>
</g>

<g fill="#000000" fill-opacity="1" stroke="#000000" stroke-opacity="1" stroke-width="1" stroke-linecap="square" stroke-linejoin="bevel" transform="matrix(1,0,0,1,0,0)"
font-family="Inconsolata" font-size="18" font-weight="400" font-style="normal" 
>
<text fill="#000000" fill-opacity="1" stroke="none" xml:space="preserve" x="199" y="183" font-family="Inconsolata" font-size="18" font-weight="400" font-style="normal" 
 >Pošle</text>
<text fill="#000000" fill-opacity="1" stroke="none" xml:space="preserve" x="199" y="202" font-family="Inconsolata" font-size="18" font-weight="400" font-style="normal" 
 >signál</text>
</g>

<g fill="none" stroke="#000000" stroke-opacity="1" stroke-width="1" stroke-linecap="square" stroke-linejoin="bevel" transform="matrix(1,0,0,1,0,0)"
font-family="Inconsolata" font-size="20" font-weight="400" font-style="normal" 
>
</g>

<g fill="none" stroke="#000000" stroke-opacity="1" stroke-width="1" stroke-linecap="square" stroke-linejoin="bevel" transform="matrix(1,0,0,1,0,0)"
font-family="Inconsolata" font-size="20" font-weight="400" font-style="normal" 
>
</g>

<g fill="#000000" fill-opacity="1" stroke="#000000" stroke-opacity="1" stroke-width="1" stroke-linecap="square" stroke-linejoin="bevel" transform="matrix(1,0,0,1,0,0)"
font-family="Inconsolata" font-size="18" font-weight="400" font-style="normal" 
>
<polyline fill="none" vector-effect="none" points="149,339.5 286,339.5 " />
<path vector-effect="none" fill-rule="evenodd" d="M286,339.5 L274,343.5 L274,335.5 L286,339.5"/>
</g>

<g fill="#f0f0f0" fill-opacity="1" stroke="none" transform="matrix(1,0,0,1,0,0)"
font-family="Inconsolata" font-size="18" font-weight="400" font-style="normal" 
>
<rect x="188" y="330.5" width="72" height="18"/>
</g>

<g fill="#000000" fill-opacity="1" stroke="#000000" stroke-opacity="1" stroke-width="1" stroke-linecap="square" stroke-linejoin="bevel" transform="matrix(1,0,0,1,0,0)"
font-family="Inconsolata" font-size="18" font-weight="400" font-style="normal" 
>
<text fill="#000000" fill-opacity="1" stroke="none" xml:space="preserve" x="188" y="345.5" font-family="Inconsolata" font-size="18" font-weight="400" font-style="normal" 
 >Callback</text>
</g>

<g fill="none" stroke="#000000" stroke-opacity="1" stroke-width="1" stroke-linecap="square" stroke-linejoin="bevel" transform="matrix(1,0,0,1,0,0)"
font-family="Inconsolata" font-size="20" font-weight="400" font-style="normal" 
>
</g>

<g fill="none" stroke="#000000" stroke-opacity="1" stroke-width="1" stroke-linecap="square" stroke-linejoin="bevel" transform="matrix(1,0,0,1,0,0)"
font-family="Inconsolata" font-size="20" font-weight="400" font-style="normal" 
>
</g>

<g fill="#000000" fill-opacity="1" stroke="#000000" stroke-opacity="1" stroke-width="1" stroke-linecap="square" stroke-linejoin="bevel" transform="matrix(1,0,0,1,0,0)"
font-family="Inconsolata" font-size="18" font-weight="400" font-style="normal" 
>
<polyline fill="none" vector-effect="none" points="95,223 95,303 " />
<path vector-effect="none" fill-rule="evenodd" d="M95,303 L91,291 L99,291 L95,303"/>
</g>

<g fill="#ffffff" fill-opacity="1" stroke="none" transform="matrix(1,0,0,1,0,0)"
font-family="Inconsolata" font-size="18" font-weight="400" font-style="normal" 
>
<rect x="18.5" y="234.5" width="153" height="37"/>
</g>

<g fill="#000000" fill-opacity="1" stroke="#000000" stroke-opacity="1" stroke-width="1" stroke-linecap="square" stroke-linejoin="bevel" transform="matrix(1,0,0,1,0,0)"
font-family="Inconsolata" font-size="18" font-weight="400" font-style="normal" 
>
<text fill="#000000" fill-opacity="1" stroke="none" xml:space="preserve" x="18.5" y="249.5" font-family="Inconsolata" font-size="18" font-weight="400" font-style="normal" 
 >  Nastaví novou</text>
<text fill="#000000" fill-opacity="1" stroke="none" xml:space="preserve" x="18.5" y="268.5" font-family="Inconsolata" font-size="18" font-weight="400" font-style="normal" 
 >hodnotu posuvníku</text>
</g>

<g fill="none" stroke="#000000" stroke-opacity="1" stroke-width="1" stroke-linecap="square" stroke-linejoin="bevel" transform="matrix(1,0,0,1,0,0)"
font-family="Inconsolata" font-size="20" font-weight="400" font-style="normal" 
>
</g>

<g fill="none" stroke="#000000" stroke-opacity="1" stroke-width="1" stroke-linecap="square" stroke-linejoin="bevel" transform="matrix(1,0,0,1,0,0)"
font-family="Inconsolata" font-size="20" font-weight="400" font-style="normal" 
>
</g>

<g fill="#878787" fill-opacity="1" stroke="#878787" stroke-opacity="1" stroke-width="1" stroke-linecap="square" stroke-linejoin="bevel" transform="matrix(1,0,0,1,0,0)"
font-family="Inconsolata" font-size="18" font-weight="400" font-style="normal" 
>
<polyline fill="none" vector-effect="none" points="95,396 95,376 " />
<path vector-effect="none" fill-rule="evenodd" d="M95,376 L99,388 L91,388 L95,376"/>
</g>

<g fill="#000000" fill-opacity="0" stroke="none" transform="matrix(1,0,0,1,0,0)"
font-family="Inconsolata" font-size="18" font-weight="400" font-style="normal" 
>
<rect x="23" y="397.5" width="144" height="37"/>
</g>

<g fill="#878787" fill-opacity="1" stroke="#878787" stroke-opacity="1" stroke-width="1" stroke-linecap="square" stroke-linejoin="bevel" transform="matrix(1,0,0,1,0,0)"
font-family="Inconsolata" font-size="18" font-weight="400" font-style="normal" 
>
<text fill="#878787" fill-opacity="1" stroke="none" xml:space="preserve" x="23" y="412.5" font-family="Inconsolata" font-size="18" font-weight="400" font-style="normal" 
 >    Uživatel</text>
<text fill="#878787" fill-opacity="1" stroke="none" xml:space="preserve" x="23" y="431.5" font-family="Inconsolata" font-size="18" font-weight="400" font-style="normal" 
 >použije posuvník</text>
</g>

<g fill="none" stroke="#000000" stroke-opacity="1" stroke-width="1" stroke-linecap="square" stroke-linejoin="bevel" transform="matrix(1,0,0,1,0,0)"
font-family="Inconsolata" font-size="20" font-weight="400" font-style="normal" 
>
</g>

<g fill="none" stroke="#000000" stroke-opacity="1" stroke-width="1" stroke-linecap="square" stroke-linejoin="bevel" transform="matrix(1,0,0,1,0,0)"
font-family="Inconsolata" font-size="20" font-weight="400" font-style="normal" 
>
</g>

<g fill="#878787" fill-opacity="1" stroke="#878787" stroke-opacity="1" stroke-width="1" stroke-linecap="square" stroke-linejoin="bevel" transform="matrix(1,0,0,1,0,0)"
font-family="Inconsolata" font-size="18" font-weight="400" font-style="normal" 
>
<polyline fill="none" vector-effect="none" points="374,243 374,223 " />
<path vector-effect="none" fill-rule="evenodd" d="M374,223 L378,235 L370,235 L374,223"/>
</g>

<g fill="#000000" fill-opacity="0" stroke="none" transform="matrix(1,0,0,1,0,0)"
font-family="Inconsolata" font-size="18" font-weight="400" font-style="normal" 
>
<rect x="302" y="244.5" width="144" height="37"/>
</g>

<g fill="#878787" fill-opacity="1" stroke="#878787" stroke-opacity="1" stroke-width="1" stroke-linecap="square" stroke-linejoin="bevel" transform="matrix(1,0,0,1,0,0)"
font-family="Inconsolata" font-size="18" font-weight="400" font-style="normal" 
>
<text fill="#878787" fill-opacity="1" stroke="none" xml:space="preserve" x="302" y="259.5" font-family="Inconsolata" font-size="18" font-weight="400" font-style="normal" 
 >Uživatel použije</text>
<text fill="#878787" fill-opacity="1" stroke="none" xml:space="preserve" x="302" y="278.5" font-family="Inconsolata" font-size="18" font-weight="400" font-style="normal" 
 >  kolečko myši</text>
</g>

<g fill="none" stroke="#000000" stroke-opacity="1" stroke-width="1" stroke-linecap="square" stroke-linejoin="bevel" transform="matrix(1,0,0,1,0,0)"
font-family="Inconsolata" font-size="20" font-weight="400" font-style="normal" 
>
</g>

<g fill="none" stroke="#000000" stroke-opacity="1" stroke-width="1" stroke-linecap="square" stroke-linejoin="bevel" transform="matrix(1,0,0,1,0,0)"
font-family="Inconsolata" font-size="20" font-weight="400" font-style="normal" 
>
</g>

<g fill="#000000" fill-opacity="1" stroke="#000000" stroke-opacity="1" stroke-width="1" stroke-linecap="square" stroke-linejoin="bevel" transform="matrix(1,0,0,1,0,0)"
font-family="Inconsolata" font-size="18" font-weight="400" font-style="normal" 
>
<polyline fill="none" vector-effect="none" points="725,177 725,197 " />
<path vector-effect="none" fill-rule="evenodd" d="M725,197 L721,185 L729,185 L725,197"/>
</g>

<g fill="none" stroke="#000000" stroke-opacity="1" stroke-width="1" stroke-linecap="square" stroke-linejoin="bevel" transform="matrix(1,0,0,1,0,0)"
font-family="Inconsolata" font-size="20" font-weight="400" font-style="normal" 
>
</g>

<g fill="none" stroke="#000000" stroke-opacity="1" stroke-width="1" stroke-linecap="square" stroke-linejoin="bevel" transform="matrix(1,0,0,1,0,0)"
font-family="Inconsolata" font-size="20" font-weight="400" font-style="normal" 
>
</g>

<g fill="#000000" fill-opacity="1" stroke="#000000" stroke-opacity="1" stroke-width="1" stroke-linecap="square" stroke-linejoin="bevel" transform="matrix(1,0,0,1,0,0)"
font-family="Inconsolata" font-size="18" font-weight="400" font-style="normal" 
>
<polyline fill="none" vector-effect="none" points="725,289 725,309 " />
<path vector-effect="none" fill-rule="evenodd" d="M725,309 L721,297 L729,297 L725,309"/>
</g>

<g fill="none" stroke="#000000" stroke-opacity="1" stroke-width="1" stroke-linecap="square" stroke-linejoin="bevel" transform="matrix(1,0,0,1,0,0)"
font-family="Inconsolata" font-size="20" font-weight="400" font-style="normal" 
>
</g>

<g fill="none" stroke="#000000" stroke-opacity="1" stroke-width="1" stroke-linecap="square" stroke-linejoin="bevel" transform="matrix(1,0,0,1,0,0)"
font-family="Inconsolata" font-size="20" font-weight="400" font-style="normal" 
>
</g>

<g fill="#000000" fill-opacity="1" stroke="#000000" stroke-opacity="1" stroke-width="1" stroke-linecap="square" stroke-linejoin="bevel" transform="matrix(1,0,0,1,0,0)"
font-family="Inconsolata" font-size="18" font-weight="400" font-style="normal" 
>
<polyline fill="none" vector-effect="none" points="725,401 725,421 " />
<polyline fill="none" vector-effect="none" points="725,421 555,421 " />
<polyline fill="none" vector-effect="none" points="555,421 555,289 " />
<path vector-effect="none" fill-rule="evenodd" d="M555,289 L559,301 L551,301 L555,289"/>
</g>

<g fill="none" stroke="#000000" stroke-opacity="1" stroke-width="1" stroke-linecap="square" stroke-linejoin="bevel" transform="matrix(1,0,0,1,0,0)"
font-family="Inconsolata" font-size="20" font-weight="400" font-style="normal" 
>
</g>

<g fill="none" stroke="#000000" stroke-opacity="1" stroke-width="1" stroke-linecap="square" stroke-linejoin="bevel" transform="matrix(1,0,0,1,0,0)"
font-family="Inconsolata" font-size="20" font-weight="400" font-style="normal" 
>
</g>

<g fill="#000000" fill-opacity="1" stroke="#000000" stroke-opacity="1" stroke-width="1" stroke-linecap="square" stroke-linejoin="bevel" transform="matrix(1,0,0,1,0,0)"
font-family="Inconsolata" font-size="18" font-weight="400" font-style="normal" 
>
<polyline fill="none" vector-effect="none" points="555,197 555,65 " />
<polyline fill="none" vector-effect="none" points="555,65 725,65 " />
<polyline fill="none" vector-effect="none" points="725,65 725,85 " />
<path vector-effect="none" fill-rule="evenodd" d="M725,85 L721,73 L729,73 L725,85"/>
</g>

<g fill="none" stroke="#000000" stroke-opacity="1" stroke-width="1" stroke-linecap="square" stroke-linejoin="bevel" transform="matrix(1,0,0,1,0,0)"
font-family="Inconsolata" font-size="20" font-weight="400" font-style="normal" 
>
</g>

<g fill="none" stroke="#000000" stroke-opacity="1" stroke-width="1" stroke-linecap="square" stroke-linejoin="bevel" transform="matrix(1,0,0,1,0,0)"
font-family="Inconsolata" font-size="20" font-weight="400" font-style="normal" 
>
</g>
</g>
</svg>
